<?xml version="1.0" encoding="iso-8859-1"?>
<!-- Generator: Adobe Illustrator 19.0.0, SVG Export Plug-In . SVG Version: 6.00 Build 0)  -->
<svg version="1.1" id="Capa_1" xmlns="http://www.w3.org/2000/svg" xmlns:xlink="http://www.w3.org/1999/xlink"
	 viewBox="0 0 400 400">
<g>
	<g>
		<path d="M 321.3 27 H 177.3 c -5.5 0 -10 4.5 -10 10 s 4.5 10 10 10 h 144 c 5.5 0 10 -4.5 10 -10 S 326.8 27 321.3 27 z"
			/>
	</g>
</g>
<g>
	<g>
		<path d="M 307.5 79.2 c -1.9 -1.9 -4.4 -2.9 -7.1 -2.9 s -5.2 1.1 -7.1 2.9 c -1.9 1.9 -2.9 4.4 -2.9 7.1 s 1.1 5.2 2.9 7.1 s 4.4 2.9 7.1 2.9 s 5.2 -1.1 7.1 -2.9 c 1.9 -1.9 2.9 -4.4 2.9 -7.1 S 309.4 81.1 307.5 79.2 z"
			/>
	</g>
</g>
<g>
	<g>
		<path d="M 234.6 80 h -59.9 c -5.5 0 -10 4.5 -10 10 s 4.5 10 10 10 h 59.9 c 5.5 0 10 -4.5 10 -10 S 240.1 80 234.6 80 z"/>
	</g>
</g>
<g>
	<g>
		<path d="M 318.8 136.3 H 174.8 c -5.5 0 -10 4.5 -10 10 s 4.5 10 10 10 h 144 c 5.5 0 10 -4.5 10 -10 S 324.3 136.3 318.8 136.3 z"/>
	</g>
</g>
<g>
	<g>
		<path d="M 308.8 179.6 c -1.9 -1.9 -4.4 -2.9 -7.1 -2.9 s -5.2 1.1 -7.1 2.9 c -1.9 1.9 -2.9 4.4 -2.9 7.1 s 1.1 5.2 2.9 7.1 s 4.4 2.9 7.1 2.9 s 5.2 -1.1 7.1 -2.9 c 1.9 -1.9 2.9 -4.4 2.9 -7.1 S 310.6 181.6 308.8 179.6 z"
			/>
	</g>
</g>
<g>
	<g>
		<path d="M 234.6 178 h -59.9 c -5.5 0 -10 4.5 -10 10 s 4.5 10 10 10 h 59.9 c 5.5 0 10 -4.5 10 -10 S 240.1 178 234.6 178 z"
			/>
	</g>
</g>
<g>
	<g>
		<path d="M 318.8 244.3 H 174.8 c -5.5 0 -10 4.5 -10 10 s 4.5 10 10 10 h 144 c 5.5 0 10 -4.5 10 -10 S 324.3 244.3 318.8 244.3 z"/>
	</g>
</g>
<g>
	<g>
		<path d="M 303.8 295.1 c -1.9 -1.9 -4.4 -2.9 -7.1 -2.9 s -5.2 1.1 -7.1 2.9 c -1.9 1.9 -2.9 4.4 -2.9 7.1 s 1.1 5.2 2.9 7.1 s 4.4 2.9 7.1 2.9 s 5.2 -1.1 7.1 -2.9 c 1.9 -1.9 2.9 -4.4 2.9 -7.1 S 305.6 297.1 303.8 295.1 z"
			/>
	</g>
</g>
<g>
	<g>
		<path d="M 237.1 287.3 h -59.9 c -5.5 0 -10 4.5 -10 10 s 4.5 10 10 10 h 59.9 c 5.5 0 10 -4.5 10 -10 S 242.6 287.3 237.1 287.3 z"
			/>
	</g>
</g>
<g>
	<g>
		<path d="M 139.4 21.3 c -3.9 -3.9 -10.2 -3.9 -14.1 0 l -42.8 42.8 l -13.2 -13.2 c -3.9 -3.9 -10.2 -3.9 -14.1 0 c -3.9 3.9 -3.9 10.2 0 14.1 l 20.2 20.2 c 2 2 4.5 2.9 7.1 2.9 c 2.6 0 5.1 -1 7.1 -2.9 l 49.8 -49.8 C 143.3 31.6 143.3 25.3 139.4 21.3 z"/>
	</g>
</g>
<g>
	<g>
		<path d="M 111.8 245.5 h -48 c -5.5 0 -10 4.5 -10 10 v 48 c 0 5.5 4.5 10 10 10 h 48 c 5.5 0 10 -4.5 10 -10 v -48 C 121.8 250 117.3 245.5 111.8 245.5 z M 101.8 293.5 h -28 v -28 h 28 V 293.5 z"/>
	</g>
</g>
<g>
	<g>
		<path d="M 113 135 h -48 c -5.5 0 -10 4.5 -10 10 v 48 c 0 5.5 4.5 10 10 10 h 48 c 5.5 0 10 -4.5 10 -10 v -48 C 123 139.5 118.5 135 113 135 z M 103 183 h -28 v -28 h 28 V 183 z"/>
	</g>
</g>
<g>
        </g>
<g>
        </g>
<g>
</g>
<g>
</g>
<g>
</g>
<g>
</g>
<g>
</g>
<g>
</g>
<g>
</g>
<g>
</g>
<g>
</g>
<g>
</g>
<g>
</g>
<g>
</g>
<g>
</g>
</svg>
